<svg width="100" height="100" viewBox="0 0 100 100" fill="none" xmlns="http://www.w3.org/2000/svg">
<g clip-path="url(#clip0_415_17)">
<path d="M51.5549 0C11.6736 0 -5.39159 46.1823 1.48449 62.077C6.6103 73.9042 17.8621 62.5776 22.3628 68.3348C34.1146 83.7288 9.1732 92.1768 22.9254 97.6211C39.1154 104.254 100 100.124 100 44.2424C100 27.409 91.6237 0 51.5549 0ZM27.9262 56.3198C26.0801 56.2829 24.286 55.7011 22.7689 54.6475C21.2519 53.5938 20.0793 52.1153 19.3983 50.3971C18.7173 48.679 18.5581 46.7979 18.9408 44.9896C19.3235 43.1813 20.231 41.5264 21.5495 40.2323C22.868 38.9383 24.5387 38.0628 26.3523 37.7155C28.1659 37.3683 30.0414 37.5648 31.7439 38.2805C33.4463 38.9961 34.8998 40.199 35.922 41.7383C36.9443 43.2776 37.4898 45.0848 37.4902 46.9332C37.4902 49.4227 36.5023 51.8102 34.7439 53.5706C32.9854 55.3309 30.6005 56.3198 28.1137 56.3198H27.9136H27.9262ZM37.4902 21.9022C37.4902 20.0457 38.0401 18.2308 39.0704 16.6872C40.1007 15.1436 41.5651 13.9405 43.2784 13.23C44.9917 12.5196 46.877 12.3337 48.6959 12.6959C50.5148 13.0581 52.1855 13.9521 53.4968 15.2648C54.8081 16.5776 55.7012 18.2501 56.0629 20.0709C56.4247 21.8918 56.2391 23.7791 55.5294 25.4943C54.8197 27.2095 53.6179 28.6755 52.0759 29.7069C50.534 30.7383 48.7211 31.2888 46.8666 31.2888H46.6666C44.2146 31.2364 41.8808 30.2244 40.1654 28.4697C38.45 26.715 37.4896 24.3573 37.4902 21.9022ZM52.9301 87.6087C51.084 87.5717 49.29 86.9899 47.7729 85.9363C46.2558 84.8826 45.0832 83.4041 44.4022 81.6859C43.7212 79.9678 43.5621 78.0867 43.9447 76.2784C44.3274 74.4701 45.2349 72.8152 46.5534 71.5211C47.8719 70.2271 49.5427 69.3516 51.3562 69.0044C53.1698 68.6571 55.0454 68.8536 56.7478 69.5693C58.4502 70.2849 59.9037 71.4878 60.926 73.0271C61.9482 74.5664 62.4937 76.3736 62.4941 78.222C62.4941 80.7115 61.5062 83.099 59.7478 84.8594C57.9894 86.6197 55.6044 87.6087 53.1176 87.6087H52.9176H52.9301ZM77.934 68.8354C76.088 68.7984 74.2939 68.2166 72.7768 67.163C71.2597 66.1094 70.0872 64.6308 69.4061 62.9127C68.7251 61.1946 68.566 59.3134 68.9487 57.5051C69.3314 55.6968 70.2389 54.0419 71.5574 52.7479C72.8758 51.4538 74.5466 50.5783 76.3602 50.2311C78.1737 49.8838 80.0493 50.0804 81.7518 50.796C83.4542 51.5116 84.9077 52.7145 85.9299 54.2538C86.9522 55.7931 87.4977 57.6003 87.498 59.4487C87.498 61.9382 86.5102 64.3258 84.7517 66.0861C82.9933 67.8464 80.6084 68.8354 78.1216 68.8354H77.9215H77.934ZM77.934 37.5466C76.088 37.5096 74.2939 36.9278 72.7768 35.8742C71.2597 34.8206 70.0872 33.342 69.4061 31.6239C68.7251 29.9058 68.566 28.0246 68.9487 26.2163C69.3314 24.408 70.2389 22.7531 71.5574 21.4591C72.8758 20.165 74.5466 19.2895 76.3602 18.9423C78.1737 18.595 80.0493 18.7916 81.7518 19.5072C83.4542 20.2228 84.9077 21.4257 85.9299 22.965C86.9522 24.5043 87.4977 26.3115 87.498 28.1599C87.498 30.6494 86.5102 33.0369 84.7517 34.7973C82.9933 36.5576 80.6084 37.5466 78.1216 37.5466H77.9215H77.934Z" fill="#FF005C"/>
</g>
<defs>
<clipPath id="clip0_415_17">
<rect width="100" height="100" fill="white"/>
</clipPath>
</defs>
</svg>
